<svg width="26" height="48" viewBox="0 0 26 48" fill="none" xmlns="http://www.w3.org/2000/svg">
<path d="M5.78895 28.3752L11.1619 16H12.9645V19.5011L9.1514 28.3752H11.9939V26.7806C11.9939 26.3924 12.6409 26.3646 12.9645 26.3993V31.287C12.0771 31.287 11.9477 30.9866 11.9939 30.8364V29.4498H8.63143L0.311979 48.0299H0L2.11453 41.617C2.11453 41.617 0.242651 40.889 0.866609 39.3291C1.49057 37.7692 5.23432 29.4498 5.23432 29.4498H0.866609V28.3752H5.78895Z" fill="#FF9900"/>
<path d="M19.7934 28.3752L14.4204 16H12.6178V19.5011L16.4309 28.3752H13.5884V26.7806C13.5884 26.3924 12.9414 26.3646 12.6178 26.3993V31.287C13.5052 31.287 13.6347 30.9866 13.5884 30.8364V29.4498H16.9509L25.2703 48.0299H25.5823L23.4678 41.617C23.4678 41.617 25.3397 40.889 24.7157 39.3291C24.0917 37.7692 20.348 29.4498 20.348 29.4498H24.7157V28.3752H19.7934Z" fill="#FF9900"/>
<path fill-rule="evenodd" clip-rule="evenodd" d="M12.6376 14.4897C14.6669 14.4897 16.312 12.8446 16.312 10.8153C16.312 8.78596 14.6669 7.14086 12.6376 7.14086C10.6083 7.14086 8.96317 8.78596 8.96317 10.8153C8.96317 12.8446 10.6083 14.4897 12.6376 14.4897ZM12.6376 16.5002C15.7773 16.5002 18.3226 13.955 18.3226 10.8153C18.3226 7.67557 15.7773 5.13033 12.6376 5.13033C9.49788 5.13033 6.95264 7.67557 6.95264 10.8153C6.95264 13.955 9.49788 16.5002 12.6376 16.5002Z" fill="black"/>
<path d="M11.5977 0H13.6775V5.47697H11.5977V0Z" fill="black"/>
</svg>
