<svg width="117" height="30" viewBox="0 0 117 30" fill="none" xmlns="http://www.w3.org/2000/svg">
<path d="M13.6704 14.3561C12.9316 14.7802 12.0355 15.1154 10.9821 15.3616C9.92865 15.6079 8.83418 15.731 7.69867 15.731C6.16641 15.731 4.85989 15.5463 3.7791 15.1769C2.71199 14.8076 1.90482 14.2945 1.35758 13.6378C0.824028 12.9812 0.557251 12.2219 0.557251 11.36C0.557251 10.6075 0.762464 9.94401 1.17289 9.36941C1.58332 8.79482 2.15107 8.35019 2.87616 8.03553C2.31524 7.74823 1.8843 7.35148 1.58332 6.84529C1.29602 6.32542 1.15237 5.75766 1.15237 5.14202C1.15237 4.34853 1.39862 3.62345 1.89114 2.96676C2.39733 2.31008 3.16346 1.78337 4.18952 1.38662C5.21559 0.989877 6.48107 0.791504 7.98597 0.791504C8.92995 0.791504 9.86025 0.88043 10.7769 1.05828C11.6935 1.23613 12.5007 1.47555 13.1984 1.77653L12.0902 4.81368C10.8179 4.25277 9.50454 3.97231 8.15014 3.97231C7.17879 3.97231 6.45371 4.10228 5.97488 4.36221C5.49605 4.60847 5.25663 4.95733 5.25663 5.4088C5.25663 6.22965 5.85175 6.64008 7.04199 6.64008H11.1052V9.7388H6.77521C6.07749 9.7388 5.55077 9.85508 5.19507 10.0877C4.83937 10.3066 4.66151 10.6349 4.66151 11.0727C4.66151 11.5378 4.92145 11.9004 5.44132 12.1603C5.9612 12.4202 6.76837 12.5502 7.86284 12.5502C8.64265 12.5502 9.44298 12.4476 10.2638 12.2424C11.0984 12.0235 11.8235 11.7294 12.4391 11.36L13.6704 14.3561Z" fill="black"/>
<path d="M24.1293 9.61567C25.4017 10.0398 26.0378 10.9154 26.0378 12.2424C26.0378 13.2411 25.6479 14.0278 24.8681 14.6023C24.0883 15.1633 22.9391 15.4437 21.4205 15.4437H15.1615V4.32117H21.1332C22.5834 4.32117 23.7052 4.57427 24.4987 5.08046C25.3059 5.58665 25.7095 6.29806 25.7095 7.21468C25.7095 7.74823 25.5727 8.22022 25.2991 8.63065C25.0254 9.04107 24.6355 9.36941 24.1293 9.61567ZM18.6502 8.79482H20.7844C21.6873 8.79482 22.1388 8.45964 22.1388 7.78927C22.1388 7.14627 21.6873 6.82477 20.7844 6.82477H18.6502V8.79482ZM21.0717 12.9196C22.0157 12.9196 22.4876 12.5776 22.4876 11.8935C22.4876 11.2095 22.0293 10.8675 21.1127 10.8675H18.6502V12.9196H21.0717Z" fill="black"/>
<path d="M33.2198 11.4831H31.9064V15.4437H28.0074V4.32117H31.9064V8.42543H33.3019L36.0312 4.32117H40.156L36.4211 9.65671L40.4023 15.4437H35.8055L33.2198 11.4831Z" fill="black"/>
<path d="M53.0227 4.32117V15.4437H49.1237V7.41989H46.3122L46.2302 9.12316C46.1754 10.5733 46.0318 11.7704 45.7992 12.7144C45.5666 13.6584 45.1836 14.3971 44.65 14.9307C44.1165 15.4506 43.3845 15.7105 42.4542 15.7105C41.9754 15.7105 41.3461 15.6216 40.5663 15.4437L40.7304 12.2629C40.9767 12.2903 41.1409 12.304 41.223 12.304C41.6471 12.304 41.9686 12.1672 42.1875 11.8935C42.4064 11.6199 42.5568 11.2574 42.6389 10.8059C42.721 10.3408 42.7757 9.72512 42.8031 8.95899L42.9673 4.32117H53.0227Z" fill="black"/>
<path d="M67.0939 4.32117V15.4437H63.3796V14.274C62.9691 14.7118 62.4766 15.047 61.902 15.2796C61.3411 15.5121 60.7392 15.6284 60.0962 15.6284C58.646 15.6284 57.4899 15.2043 56.6281 14.3561C55.7798 13.5079 55.3557 12.2356 55.3557 10.5391V4.32117H59.2548V9.90297C59.2548 11.5036 59.8773 12.304 61.1222 12.304C61.7379 12.304 62.2372 12.0919 62.6203 11.6678C63.0033 11.23 63.1949 10.5665 63.1949 9.67723V4.32117H67.0939Z" fill="black"/>
<path d="M81.5522 4.32117V13.4121C81.5522 15.4779 80.9912 17.0239 79.8694 18.0499C78.7476 19.0897 77.1332 19.6095 75.0264 19.6095C73.9319 19.6095 72.9058 19.4864 71.9482 19.2402C70.9905 18.9939 70.1765 18.6314 69.5061 18.1525L70.9221 15.4232C71.3736 15.7926 71.9413 16.0799 72.6254 16.2851C73.3231 16.504 74.0071 16.6134 74.6775 16.6134C75.7036 16.6134 76.456 16.3877 76.9349 15.9362C77.4137 15.4848 77.6531 14.8144 77.6531 13.9251V13.5558C76.9007 14.4313 75.7993 14.8691 74.3492 14.8691C73.3642 14.8691 72.4544 14.6502 71.6198 14.2124C70.7853 13.761 70.1218 13.1317 69.6293 12.3245C69.1368 11.5036 68.8905 10.5596 68.8905 9.49254C68.8905 8.43911 69.1368 7.50881 69.6293 6.70164C70.1218 5.88079 70.7853 5.25147 71.6198 4.81368C72.4544 4.36221 73.3642 4.13648 74.3492 4.13648C75.9361 4.13648 77.099 4.64951 77.8378 5.67558V4.32117H81.5522ZM75.2726 11.7704C75.9704 11.7704 76.545 11.5584 76.9964 11.1342C77.4616 10.7101 77.6941 10.1629 77.6941 9.49254C77.6941 8.82218 77.4684 8.28178 77.0169 7.87136C76.5655 7.44725 75.984 7.2352 75.2726 7.2352C74.5612 7.2352 73.9729 7.44725 73.5078 7.87136C73.0563 8.28178 72.8306 8.82218 72.8306 9.49254C72.8306 10.1629 73.0632 10.7101 73.5283 11.1342C73.9935 11.5584 74.5749 11.7704 75.2726 11.7704Z" fill="black"/>
<path d="M6.88336 20.8791V27.5763H5.00816V22.3812H2.46324V27.5763H0.5976V20.8791H6.88336Z" fill="black"/>
<path d="M10.9843 22.3046C11.552 22.3046 12.0463 22.4131 12.4673 22.6299C12.8882 22.8468 13.2103 23.1593 13.4336 23.5675C13.6632 23.9694 13.778 24.4413 13.778 24.9835C13.778 25.5193 13.6728 25.9913 13.4623 26.3995C13.2518 26.8013 12.9552 27.1138 12.5725 27.3371C12.1898 27.5539 11.7465 27.6624 11.2426 27.6624C10.6495 27.6624 10.1839 27.4806 9.84581 27.117V29.4323H8.02801V25.0026C8.02801 24.4669 8.14919 23.9949 8.39157 23.5867C8.63394 23.1785 8.97837 22.8627 9.42484 22.6395C9.87132 22.4163 10.3911 22.3046 10.9843 22.3046ZM10.8982 26.2177C11.2235 26.2177 11.485 26.1061 11.6827 25.8828C11.8868 25.6532 11.9889 25.3534 11.9889 24.9835C11.9889 24.6136 11.8868 24.317 11.6827 24.0937C11.485 23.8641 11.2235 23.7493 10.8982 23.7493C10.5729 23.7493 10.3114 23.8641 10.1137 24.0937C9.91597 24.317 9.81711 24.6136 9.81711 24.9835C9.81711 25.3598 9.91278 25.6596 10.1041 25.8828C10.3019 26.1061 10.5666 26.2177 10.8982 26.2177Z" fill="black"/>
<path d="M17.211 27.6624C16.6561 27.6624 16.1554 27.5476 15.709 27.3179C15.2625 27.0883 14.9117 26.7694 14.6566 26.3612C14.4078 25.953 14.2834 25.4906 14.2834 24.9739C14.2834 24.4637 14.4078 24.0044 14.6566 23.5962C14.9117 23.188 15.2593 22.8723 15.6994 22.6491C16.1459 22.4194 16.6498 22.3046 17.211 22.3046C17.7723 22.3046 18.2762 22.4194 18.7227 22.6491C19.1692 22.8723 19.5168 23.188 19.7655 23.5962C20.0143 23.9981 20.1387 24.4573 20.1387 24.9739C20.1387 25.4906 20.0143 25.953 19.7655 26.3612C19.5168 26.7694 19.1692 27.0883 18.7227 27.3179C18.2762 27.5476 17.7723 27.6624 17.211 27.6624ZM17.211 26.2177C17.53 26.2177 17.7915 26.1093 17.9956 25.8924C18.1997 25.6692 18.3017 25.363 18.3017 24.9739C18.3017 24.5912 18.1997 24.2915 17.9956 24.0746C17.7915 23.8577 17.53 23.7493 17.211 23.7493C16.8921 23.7493 16.6306 23.8577 16.4265 24.0746C16.2224 24.2915 16.1204 24.5912 16.1204 24.9739C16.1204 25.363 16.2224 25.6692 16.4265 25.8924C16.6306 26.1093 16.8921 26.2177 17.211 26.2177Z" fill="black"/>
<path d="M23.737 26.2751C23.9858 26.2751 24.1995 26.24 24.378 26.1699C24.563 26.0997 24.748 25.9849 24.933 25.8254L25.8801 26.8204C25.389 27.3817 24.6555 27.6624 23.6796 27.6624C23.0737 27.6624 22.5411 27.5476 22.0819 27.3179C21.6226 27.0883 21.2655 26.7694 21.0103 26.3612C20.7616 25.953 20.6372 25.4906 20.6372 24.9739C20.6372 24.4637 20.7616 24.0076 21.0103 23.6058C21.2591 23.1976 21.6003 22.8787 22.034 22.6491C22.4741 22.4194 22.9653 22.3046 23.5074 22.3046C24.0113 22.3046 24.4705 22.4099 24.8851 22.6204C25.3061 22.8245 25.6409 23.1274 25.8897 23.5293C26.1384 23.9247 26.2628 24.3967 26.2628 24.9452L22.5602 25.6532C22.758 26.0678 23.1502 26.2751 23.737 26.2751ZM23.517 23.5962C23.2044 23.5962 22.9493 23.6951 22.7516 23.8928C22.5539 24.0842 22.4422 24.3616 22.4167 24.7252L24.5216 24.3138C24.4578 24.0969 24.3366 23.9247 24.158 23.7971C23.9794 23.6632 23.7657 23.5962 23.517 23.5962Z" fill="black"/>
<path d="M29.5597 25.7298H28.9474V27.5763H27.1296V22.3907H28.9474V24.3042H29.598L30.8705 22.3907H32.7935L31.0523 24.8783L32.9083 27.5763H30.7652L29.5597 25.7298Z" fill="black"/>
<path d="M40.2656 22.3046C40.9034 22.3046 41.4105 22.496 41.7868 22.8787C42.1695 23.2614 42.3608 23.8386 42.3608 24.6104V27.5763H40.543V24.907C40.543 24.5434 40.4729 24.2755 40.3325 24.1033C40.1986 23.9311 40.0072 23.845 39.7585 23.845C39.4842 23.845 39.2642 23.9407 39.0983 24.132C38.9325 24.3233 38.8496 24.6136 38.8496 25.0026V27.5763H37.0318V24.907C37.0318 24.199 36.7703 23.845 36.2473 23.845C35.9666 23.845 35.7434 23.9407 35.5775 24.132C35.4117 24.3233 35.3288 24.6136 35.3288 25.0026V27.5763H33.511V22.3907H35.2427V22.9361C35.434 22.7256 35.6605 22.5693 35.922 22.4673C36.1899 22.3589 36.4801 22.3046 36.7926 22.3046C37.1562 22.3046 37.4815 22.3716 37.7685 22.5056C38.0555 22.6395 38.2883 22.8436 38.4669 23.1179C38.671 22.8564 38.9293 22.6554 39.2419 22.5151C39.5544 22.3748 39.8956 22.3046 40.2656 22.3046Z" fill="black"/>
<path d="M43.4614 22.3907H45.2697V24.3138H47.1353V22.3907H48.9531V27.5763H47.1353V25.7585H45.2697V27.5763H43.4614V22.3907Z" fill="black"/>
<path d="M52.6475 27.7293C50.9318 27.7293 50.0739 26.9926 50.0739 25.5193V22.3907H51.8821V24.0363C52.0161 23.947 52.1947 23.8737 52.4179 23.8163C52.6475 23.7589 52.909 23.7302 53.2024 23.7302C53.8403 23.7302 54.341 23.8928 54.7045 24.2181C55.0681 24.537 55.2499 25.0122 55.2499 25.6436C55.2499 26.3261 55.0139 26.8459 54.5419 27.2031C54.0763 27.5539 53.4448 27.7293 52.6475 27.7293ZM55.6804 22.3907H57.4982V27.5763H55.6804V22.3907ZM52.6475 26.4856C52.8963 26.4856 53.0844 26.4122 53.212 26.2655C53.3396 26.1188 53.4034 25.9243 53.4034 25.6819C53.4034 25.4459 53.3396 25.261 53.212 25.127C53.0844 24.9931 52.8995 24.9261 52.6571 24.9261C52.4849 24.9261 52.3318 24.958 52.1979 25.0218C52.0639 25.0856 51.9587 25.1717 51.8821 25.2801V25.6819C51.8821 25.9307 51.9459 26.1284 52.0735 26.2751C52.201 26.4154 52.3924 26.4856 52.6475 26.4856Z" fill="black"/>
<path d="M61.4646 26.2751C61.7134 26.2751 61.927 26.24 62.1056 26.1699C62.2906 26.0997 62.4756 25.9849 62.6605 25.8254L63.6077 26.8204C63.1166 27.3817 62.3831 27.6624 61.4072 27.6624C60.8013 27.6624 60.2687 27.5476 59.8095 27.3179C59.3502 27.0883 58.993 26.7694 58.7379 26.3612C58.4892 25.953 58.3648 25.4906 58.3648 24.9739C58.3648 24.4637 58.4892 24.0076 58.7379 23.6058C58.9867 23.1976 59.3279 22.8787 59.7616 22.6491C60.2017 22.4194 60.6928 22.3046 61.235 22.3046C61.7389 22.3046 62.1981 22.4099 62.6127 22.6204C63.0337 22.8245 63.3685 23.1274 63.6173 23.5293C63.866 23.9247 63.9904 24.3967 63.9904 24.9452L60.2878 25.6532C60.4855 26.0678 60.8778 26.2751 61.4646 26.2751ZM61.2446 23.5962C60.932 23.5962 60.6769 23.6951 60.4792 23.8928C60.2814 24.0842 60.1698 24.3616 60.1443 24.7252L62.2491 24.3138C62.1853 24.0969 62.0642 23.9247 61.8856 23.7971C61.707 23.6632 61.4933 23.5962 61.2446 23.5962Z" fill="black"/>
<path d="M70.2438 27.6624C69.6697 27.6624 69.1563 27.5476 68.7034 27.3179C68.2506 27.0883 67.8966 26.7694 67.6415 26.3612C67.3927 25.953 67.2683 25.4906 67.2683 24.9739C67.2683 24.4573 67.3927 23.9981 67.6415 23.5962C67.8966 23.188 68.2506 22.8723 68.7034 22.6491C69.1563 22.4194 69.6697 22.3046 70.2438 22.3046C70.8306 22.3046 71.3377 22.4322 71.765 22.6873C72.1923 22.9361 72.4953 23.2837 72.6739 23.7302L71.2675 24.4477C71.0315 23.9821 70.6871 23.7493 70.2342 23.7493C69.9089 23.7493 69.6379 23.8577 69.421 24.0746C69.2105 24.2915 69.1053 24.5912 69.1053 24.9739C69.1053 25.363 69.2105 25.6692 69.421 25.8924C69.6379 26.1093 69.9089 26.2177 70.2342 26.2177C70.6871 26.2177 71.0315 25.9849 71.2675 25.5193L72.6739 26.2368C72.4953 26.6833 72.1923 27.0341 71.765 27.2892C71.3377 27.538 70.8306 27.6624 70.2438 27.6624Z" fill="black"/>
<path d="M78.7728 22.3907V27.5763H77.0411V27.0309C76.8498 27.235 76.6201 27.3913 76.3523 27.4997C76.0908 27.6081 75.8101 27.6624 75.5103 27.6624C74.8342 27.6624 74.2953 27.4646 73.8934 27.0692C73.498 26.6737 73.3003 26.0806 73.3003 25.2897V22.3907H75.1181V24.9931C75.1181 25.7393 75.4083 26.1124 75.9887 26.1124C76.2757 26.1124 76.5085 26.0136 76.6871 25.8159C76.8657 25.6118 76.955 25.3024 76.955 24.8878V22.3907H78.7728Z" fill="black"/>
<path d="M82.5954 27.6624C82.0214 27.6624 81.5079 27.5476 81.0551 27.3179C80.6022 27.0883 80.2482 26.7694 79.9931 26.3612C79.7443 25.953 79.62 25.4906 79.62 24.9739C79.62 24.4573 79.7443 23.9981 79.9931 23.5962C80.2482 23.188 80.6022 22.8723 81.0551 22.6491C81.5079 22.4194 82.0214 22.3046 82.5954 22.3046C83.1822 22.3046 83.6893 22.4322 84.1166 22.6873C84.544 22.9361 84.8469 23.2837 85.0255 23.7302L83.6191 24.4477C83.3831 23.9821 83.0387 23.7493 82.5858 23.7493C82.2606 23.7493 81.9895 23.8577 81.7726 24.0746C81.5621 24.2915 81.4569 24.5912 81.4569 24.9739C81.4569 25.363 81.5621 25.6692 81.7726 25.8924C81.9895 26.1093 82.2606 26.2177 82.5858 26.2177C83.0387 26.2177 83.3831 25.9849 83.6191 25.5193L85.0255 26.2368C84.8469 26.6833 84.544 27.0341 84.1166 27.2892C83.6893 27.538 83.1822 27.6624 82.5954 27.6624Z" fill="black"/>
<path d="M92.5404 22.3046C93.1782 22.3046 93.6853 22.496 94.0616 22.8787C94.4443 23.2614 94.6356 23.8386 94.6356 24.6104V27.5763H92.8178V24.907C92.8178 24.5434 92.7477 24.2755 92.6074 24.1033C92.4734 23.9311 92.2821 23.845 92.0333 23.845C91.7591 23.845 91.539 23.9407 91.3732 24.132C91.2073 24.3233 91.1244 24.6136 91.1244 25.0026V27.5763H89.3066V24.907C89.3066 24.199 89.0451 23.845 88.5221 23.845C88.2415 23.845 88.0182 23.9407 87.8524 24.132C87.6865 24.3233 87.6036 24.6136 87.6036 25.0026V27.5763H85.7858V22.3907H87.5175V22.9361C87.7089 22.7256 87.9353 22.5693 88.1968 22.4673C88.4647 22.3589 88.7549 22.3046 89.0674 22.3046C89.431 22.3046 89.7563 22.3716 90.0433 22.5056C90.3303 22.6395 90.5631 22.8436 90.7417 23.1179C90.9458 22.8564 91.2041 22.6554 91.5167 22.5151C91.8292 22.3748 92.1705 22.3046 92.5404 22.3046Z" fill="black"/>
<path d="M98.4821 26.2751C98.7309 26.2751 98.9445 26.24 99.1231 26.1699C99.3081 26.0997 99.4931 25.9849 99.678 25.8254L100.625 26.8204C100.134 27.3817 99.4006 27.6624 98.4247 27.6624C97.8188 27.6624 97.2862 27.5476 96.827 27.3179C96.3677 27.0883 96.0105 26.7694 95.7554 26.3612C95.5066 25.953 95.3823 25.4906 95.3823 24.9739C95.3823 24.4637 95.5066 24.0076 95.7554 23.6058C96.0042 23.1976 96.3454 22.8787 96.7791 22.6491C97.2192 22.4194 97.7103 22.3046 98.2525 22.3046C98.7564 22.3046 99.2156 22.4099 99.6302 22.6204C100.051 22.8245 100.386 23.1274 100.635 23.5293C100.884 23.9247 101.008 24.3967 101.008 24.9452L97.3053 25.6532C97.503 26.0678 97.8953 26.2751 98.4821 26.2751ZM98.2621 23.5962C97.9495 23.5962 97.6944 23.6951 97.4967 23.8928C97.2989 24.0842 97.1873 24.3616 97.1618 24.7252L99.2666 24.3138C99.2028 24.0969 99.0817 23.9247 98.9031 23.7971C98.7245 23.6632 98.5108 23.5962 98.2621 23.5962Z" fill="black"/>
<path d="M106.907 27.5763V24.8496L105.577 27.117H104.802L103.511 24.8113V27.5763H101.875V22.3907H103.788L105.233 25.0983L106.821 22.3907H108.534L108.543 27.5763H106.907Z" fill="black"/>
<path d="M112.238 27.7293C110.522 27.7293 109.664 26.9926 109.664 25.5193V22.3907H111.473V24.0363C111.607 23.947 111.785 23.8737 112.008 23.8163C112.238 23.7589 112.5 23.7302 112.793 23.7302C113.431 23.7302 113.931 23.8928 114.295 24.2181C114.659 24.537 114.84 25.0122 114.84 25.6436C114.84 26.3261 114.604 26.8459 114.132 27.2031C113.667 27.5539 113.035 27.7293 112.238 27.7293ZM115.271 22.3907H117.089V27.5763H115.271V22.3907ZM112.238 26.4856C112.487 26.4856 112.675 26.4122 112.803 26.2655C112.93 26.1188 112.994 25.9243 112.994 25.6819C112.994 25.4459 112.93 25.261 112.803 25.127C112.675 24.9931 112.49 24.9261 112.248 24.9261C112.075 24.9261 111.922 24.958 111.788 25.0218C111.654 25.0856 111.549 25.1717 111.473 25.2801V25.6819C111.473 25.9307 111.536 26.1284 111.664 26.2751C111.792 26.4154 111.983 26.4856 112.238 26.4856Z" fill="black"/>
</svg>
